PathFileType	4	(X/Y/Z)	Patient4_TMGait_0pt6_02_left_16.trc.trc
DataRate	CameraRate	NumFrames	NumMarkers	Units	OrigDataRate	OrigDataStartFrame	OrigNumFrames
80.459770114943	80.459770114943	4	33	mm	80.459770114943	124	       141
Frame#	Time	Sacral			L.Shoulder			Chest			R.Shoulder			Neck			R.ASIS			L.ASIS			R.Thigh.Superior			R.Thigh.Lateral			R.Thigh.Inferior			R.Patella			L.Thigh.Superior			L.Thigh.Lateral			L.Thigh.Inferior			L.Patella			L.Shank.Superior			L.Shank.Lateral			L.Shank.Inferior			R.Shank.Superior			R.Shank.Lateral			R.Shank.Inferior			R.Heel			R.Midfoot.Superior			R.Midfoot.Lateral			R.Toe			L.Heel			L.Midfoot.Lateral			L.Midfoot.Superior			L.Toe			L.Elbow			L.Wrist			R.Elbow			R.Wrist			
		X1	Y1	Z1	X2	Y2	Z2	X3	Y3	Z3	X4	Y4	Z4	X5	Y5	Z5	X6	Y6	Z6	X7	Y7	Z7	X8	Y8	Z8	X9	Y9	Z9	X10	Y10	Z10	X11	Y11	Z11	X12	Y12	Z12	X13	Y13	Z13	X14	Y14	Z14	X15	Y15	Z15	X16	Y16	Z16	X17	Y17	Z17	X18	Y18	Z18	X19	Y19	Z19	X20	Y20	Z20	X21	Y21	Z21	X22	Y22	Z22	X23	Y23	Z23	X24	Y24	Z24	X25	Y25	Z25	X26	Y26	Z26	X27	Y27	Z27	X28	Y28	Z28	X29	Y29	Z29	X30	Y30	Z30	X31	Y31	Z31	X32	Y32	Z32	X33	Y33	Z33	

124	21.168714285714	804.073462260917	1010.291898314531	511.695909876976	981.090883979486	1436.262956666559	336.487455075732	1096.506713787325	1351.562277401925	480.205301821400	1038.172137942220	1422.540149124638	663.976009381864	1000.032335216344	1489.197047100885	489.733035412251	1030.841339135229	936.913466730553	618.478737077513	1006.723377589479	952.717906219453	344.145009104031	1027.995272283136	725.599395015551	589.860546383542	922.534883358829	631.769638544865	647.991152026402	984.421367928206	566.902902127874	568.468325261978	964.417694886160	482.012301690503	570.642523607336	1077.374043939209	771.022925702513	371.952910614294	1022.597996238073	640.381370898475	299.964239311233	1128.252934924476	581.644625840333	356.233993334059	1149.056948402930	511.542555535099	355.638006001969	1128.838343259257	437.499043063742	347.699470961858	1051.375233471518	312.681467554595	300.897895366213	1130.633293715835	208.122695272197	356.307861364575	926.104214995243	398.333674555342	574.550908048838	840.079810409554	303.403530293881	632.467622541219	870.910782646123	205.738847363028	565.919994016191	720.487047233441	47.661556635711	530.978149054207	895.241119353802	97.550737719595	562.440424961575	805.859342498647	37.747962402593	602.023427508611	1013.724634361342	39.873452154730	585.159647093555	1030.810967880666	40.685477819519	396.129222664267	1104.852604400098	38.470414671930	316.069151690722	1184.084072402078	105.832216973677	338.774488860675	1314.120692305882	60.776576816633	312.548759928177	829.530326958586	1116.116911489654	233.465776889267	804.565262706210	856.134740102574	226.476379534811	1169.639379388600	1107.253118404871	757.853998413191	1355.761020196917	1223.091262665455	640.697848616546	
125	21.181142857143	804.146168957356	1009.335606587473	509.279777947033	980.036353717904	1435.512231689247	334.402196700902	1095.470792125459	1351.266799785018	478.410541240739	1036.420260530060	1422.137234261630	662.127441176741	998.585084344026	1488.600704546152	487.665156390985	1030.737869503250	936.130753174100	616.723306839123	1007.395336392057	951.628978696321	342.453800917132	1027.285969566881	724.435088727155	588.883755662686	920.780949695428	631.207314012510	646.587288186638	982.650363243435	565.731866853649	567.524054983098	961.945235509948	480.511154506228	569.557034245857	1077.638130478912	768.951169487196	371.551280127238	1021.822713543435	638.828930661401	300.304972172624	1126.795233498788	579.441532234763	357.317773150808	1146.162845506599	508.447170630832	357.230231038092	1125.120399753204	434.310502995439	348.955318069478	1045.676929661189	310.643001843014	302.178208338551	1122.533685654717	204.861406770929	358.623598339911	922.558309473348	397.333318147078	573.667369827729	835.230029389470	303.599289878940	631.755488032535	864.866035675757	205.404767857044	565.539561914217	713.005879044609	48.194107476412	531.013301448794	887.910506979726	97.616938615270	562.494393778266	798.366025366422	37.916454184670	602.008150871432	1006.262760367214	39.647374523471	585.175079536038	1019.036828024170	39.467968247082	397.962959241071	1093.305258559284	36.837036748505	318.005480008821	1173.709911448218	102.329681885112	341.970422593565	1303.321085131403	55.103721293118	315.652257586944	828.862754765073	1115.092196563295	231.832677667688	805.133256857306	854.860554377880	225.325328017654	1166.166140198049	1106.442736556640	758.679497928208	1348.534260715356	1226.374043497046	639.956053699445	
126	21.193571428571	804.149916778516	1008.626836117003	506.894131345374	979.166565855352	1434.903501766247	332.176240804274	1094.559893351544	1351.111823815156	476.527571396545	1034.822812937331	1422.009868355058	660.148603213555	997.341607901987	1488.204525596564	485.427566375394	1030.583651381080	935.503234110492	614.886169107292	1007.940247361469	950.802494883331	340.675244513584	1026.759247133280	723.463401607658	587.759552987913	919.437830912299	630.690895024527	645.073793372859	981.413647649051	564.692532353664	566.448466134806	960.156354687718	478.929393297966	568.479494269109	1077.743349413430	767.174547235226	371.124691831391	1020.977197402885	637.703072376675	300.318482757115	1125.137561292217	577.593769285739	358.231899286598	1143.192869165232	505.932168204263	358.588932306910	1121.516386814460	431.779732240900	349.890663514239	1040.629422622983	309.112715992973	302.820471520260	1115.234125493933	202.368058183473	360.378533923490	919.505445897072	396.340579848981	572.744890578502	830.728512161881	303.951044528058	630.982851873369	859.060783909819	205.182596837001	565.151995183341	705.546750659687	49.039172413676	531.047766830824	880.688705412291	97.713623350490	562.527070451258	790.904259364360	38.201814948960	601.973780889274	998.859699739084	39.374432358527	585.194131317754	1008.662226778638	38.586303645372	399.206425082343	1083.107186465216	35.823527788701	319.312713728112	1164.314835706722	99.847136268203	344.424120891843	1293.629777099221	51.126866867152	317.959809650617	828.904003804007	1113.918593443826	229.957107914946	806.594774736148	853.424590790844	223.852347707451	1161.949191826125	1105.590168986659	759.951095974224	1341.462810713373	1228.331567178398	639.733883462325	
127	21.206000000000	804.075169548469	1008.211407642367	504.563253577910	978.468053509143	1434.481671260814	329.840043235396	1093.763724257039	1351.131442397268	474.575012281935	1033.397719137600	1422.195917448063	658.054678556588	996.300344586030	1488.047711176776	483.048574444278	1030.356909948710	935.081859141863	612.979044832713	1008.327803254951	950.313372934299	338.804496764453	1026.407332889208	722.746325607863	586.470087971200	918.559490564871	630.248250506555	643.476864167073	980.784341181703	563.825748582985	565.266885553314	959.164652453123	477.277383450742	567.501016638295	1077.701283083467	765.830632185160	370.602516582111	1020.110681867995	637.062077700658	299.963595750088	1123.316884487853	576.171741803570	358.874655159795	1140.187853041782	504.039931971002	359.627228291629	1118.042561056411	429.913116321247	350.493885408164	1036.193175731109	308.108120533940	302.823377932246	1108.660956243607	200.620198351704	361.573861426751	917.020137851495	395.382035887864	571.841876499596	826.633769772442	304.510715796859	630.184271748018	853.547529563583	205.122226862970	564.796469295414	698.131408491766	50.293766374193	531.092474994253	873.610574420597	97.848823108250	562.544612980645	783.488824992371	38.647461403594	601.927834356414	991.516981275286	39.061888119052	585.212991650350	999.571542092280	38.028801351469	399.913635103954	1074.139455731788	35.324118482735	320.047199514877	1155.824863295825	98.285951013267	346.114998364560	1284.959810834720	48.678423555252	319.470167656563	829.648119044675	1112.657044112512	227.843608629799	808.953490656304	851.891890683245	222.045021451055	1156.905444158794	1104.749739317598	761.591909686205	1334.617956099157	1228.969560450483	640.022367507522	
